<svg xmlns="http://www.w3.org/2000/svg" viewBox="0 0 1000 650" width="1000" height="650" role="img">
<defs>
  <radialGradient id="candleGlow" cx="52%" cy="42%" r="68%">
    <stop offset="0%" stop-color="#FFF7D6" stop-opacity="0.65"/>
    <stop offset="28%" stop-color="#FFE8B0" stop-opacity="0.38"/>
    <stop offset="52%" stop-color="#E9C08A" stop-opacity="0.18"/>
    <stop offset="78%" stop-color="#8B6A4A" stop-opacity="0.08"/>
    <stop offset="100%" stop-color="#2B1E12" stop-opacity="0"/>
  </radialGradient>
  <radialGradient id="groundBase" cx="50%" cy="50%" r="75%">
    <stop offset="0%" stop-color="#F3E8C9"/>
    <stop offset="35%" stop-color="#E8D9B0"/>
    <stop offset="65%" stop-color="#D8C69A"/>
    <stop offset="100%" stop-color="#C9B48A"/>
  </radialGradient>
  <linearGradient id="rootGrad" x1="0%" y1="0%" x2="100%" y2="0%">
    <stop offset="0%" stop-color="#4A2E14"/>
    <stop offset="22%" stop-color="#7A4A22"/>
    <stop offset="50%" stop-color="#9C6B35"/>
    <stop offset="78%" stop-color="#6D3E1A"/>
    <stop offset="100%" stop-color="#3E2110"/>
  </linearGradient>
  <linearGradient id="mossGrad" x1="0%" y1="0%" x2="0%" y2="100%">
    <stop offset="0%" stop-color="#A8C69A"/>
    <stop offset="100%" stop-color="#6B8F5E"/>
  </linearGradient>
  <radialGradient id="capRed" cx="35%" cy="30%" r="70%">
    <stop offset="0%" stop-color="#FF8A7A"/>
    <stop offset="35%" stop-color="#D94A3A"/>
    <stop offset="75%" stop-color="#A82E22"/>
    <stop offset="100%" stop-color="#7A1A12"/>
  </radialGradient>
  <radialGradient id="capBrown" cx="30%" cy="25%" r="70%">
    <stop offset="0%" stop-color="#E8C9A0"/>
    <stop offset="40%" stop-color="#C49A6A"/>
    <stop offset="100%" stop-color="#8B5A2B"/>
  </radialGradient>
  <radialGradient id="fireflyGlow" cx="50%" cy="50%" r="50%">
    <stop offset="0%" stop-color="#FFFDE0" stop-opacity="1"/>
    <stop offset="30%" stop-color="#FFEB8A" stop-opacity="0.9"/>
    <stop offset="65%" stop-color="#FFC94A" stop-opacity="0.4"/>
    <stop offset="100%" stop-color="#FF9A00" stop-opacity="0"/>
  </radialGradient>
  <filter id="paper" x="-10%" y="-10%" width="120%" height="120%">
    <feTurbulence type="fractalNoise" baseFrequency="0.85" numOctaves="3" seed="7" result="n"/>
    <feColorMatrix type="matrix" values="1 0 0 0 0  0 1 0 0 0  0 0 1 0 0  0 0 0 0.18 0" result="n2"/>
    <feTurbulence type="fractalNoise" baseFrequency="0.04" numOctaves="2" seed="12" result="n3"/>
    <feDisplacementMap in="SourceGraphic" in2="n3" scale="1.5" xChannelSelector="R" yChannelSelector="G"/>
  </filter>
  <filter id="softBlur" x="-20%" y="-20%" width="140%" height="140%">
    <feGaussianBlur stdDeviation="1.2" result="b"/>
    <feTurbulence baseFrequency="0.03" numOctaves="2" seed="3" result="t"/>
    <feDisplacementMap in="b" in2="t" scale="1.8"/>
  </filter>
  <filter id="glow" x="-50%" y="-50%" width="200%" height="200%">
    <feGaussianBlur stdDeviation="3.5" result="gb"/>
    <feMerge>
      <feMergeNode in="gb"/>
      <feMergeNode in="SourceGraphic"/>
    </feMerge>
  </filter>
  <filter id="inkBleed" x="-20%" y="-20%" width="140%" height="140%">
    <feTurbulence baseFrequency="0.02" numOctaves="2" seed="5" result="tb"/>
    <feDisplacementMap in="SourceGraphic" in2="tb" scale="2.2"/>
  </filter>
</defs>

<!-- Base paper -->
<rect x="0" y="0" width="1000" height="650" rx="18" fill="#F9F0D6"/>
<rect x="0" y="0" width="1000" height="650" rx="18" fill="url(#groundBase)"/>

<!-- subtle mottled watercolor wash -->
<g opacity="0.22" filter="url(#paper)">
  <ellipse cx="320" cy="420" rx="310" ry="210" fill="#D9E8B8"/>
  <ellipse cx="720" cy="380" rx="280" ry="190" fill="#E8D4A8"/>
  <ellipse cx="500" cy="580" rx="420" ry="120" fill="#CDE0A8"/>
  <ellipse cx="180" cy="200" rx="200" ry="140" fill="#EEDFBA"/>
</g>

<!-- Tree trunk top edge - top down view -->
<g filter="url(#softBlur)">
  <ellipse cx="500" cy="-10" rx="220" ry="145" fill="#3E2110" opacity="0.95" stroke="#1E0F06" stroke-width="3" stroke-opacity="0.5"/>
  <ellipse cx="500" cy="-10" rx="195" ry="122" fill="url(#rootGrad)" stroke="#2B1608" stroke-width="2.5" stroke-opacity="0.4"/>
  <!-- growth rings -->
  <ellipse cx="500" cy="-10" rx="155" ry="98" fill="none" stroke="#2B1608" stroke-width="1.8" opacity="0.22"/>
  <ellipse cx="500" cy="-10" rx="115" ry="72" fill="none" stroke="#2B1608" stroke-width="1.4" opacity="0.18"/>
  <ellipse cx="500" cy="-10" rx="75" ry="48" fill="none" stroke="#2B1608" stroke-width="1.2" opacity="0.15"/>
  <ellipse cx="505" cy="-18" rx="32" ry="22" fill="#1A0E05" opacity="0.35"/>
  <!-- bark texture -->
  <path d="M 380 -20 Q 395 10 385 40" stroke="#2B1608" stroke-width="2" opacity="0.2" fill="none" stroke-linecap="round"/>
  <path d="M 620 -15 Q 605 15 615 45" stroke="#2B1608" stroke-width="2" opacity="0.2" fill="none" stroke-linecap="round"/>
  <path d="M 500 85 Q 505 95 500 105" stroke="#2B1608" stroke-width="1.5" opacity="0.25" fill="none"/>
</g>

<!-- Main roots - thick winding -->
<g stroke-linecap="round" stroke-linejoin="round" filter="url(#inkBleed)">
  <!-- Root 1 - central left curving -->
  <path d="M 420 85 C 380 115, 310 135, 240 155 C 180 172, 120 190, 85 245 C 70 270, 78 295, 105 310 C 135 325, 165 315, 185 285 C 200 260, 195 235, 225 220 C 285 192, 360 175, 415 115 Z" fill="url(#rootGrad)" stroke="#2B1608" stroke-width="2.2" stroke-opacity="0.45"/>
  <path d="M 420 85 C 380 115, 310 135, 240 155 C 180 172, 120 190, 85 245" fill="none" stroke="#FFE8C0" stroke-width="3.5" opacity="0.18" stroke-linecap="round"/>
  <path d="M 105 310 C 135 325, 165 315, 185 285" fill="none" stroke="#1A0E05" stroke-width="1.2" opacity="0.15"/>
  <!-- Root 2 - central right -->
  <path d="M 580 88 C 625 118, 700 142, 760 168 C 815 192, 875 210, 910 265 C 928 292, 920 320, 890 332 C 860 344, 830 330, 815 298 C 800 268, 810 238, 780 218 C 720 180, 640 155, 585 108 Z" fill="url(#rootGrad)" stroke="#2B1608" stroke-width="2.2" stroke-opacity="0.45"/>
  <path d="M 580 88 C 625 118, 700 142, 760 168 C 815 192, 875 210, 910 265" fill="none" stroke="#FFE8C0" stroke-width="3.2" opacity="0.18"/>
  <!-- Root 3 - middle left small -->
  <path d="M 380 95 C 340 145, 285 195, 230 225 C 190 245, 145 255, 110 285 C 92 302, 95 325, 118 335 C 142 345, 168 332, 178 308 C 188 282, 182 258, 212 242 C 260 215, 330 185, 385 115 Z" fill="#7A4A22" stroke="#2B1608" stroke-width="1.8" stroke-opacity="0.4"/>
  <!-- Root 4 - middle right small -->
  <path d="M 620 98 C 660 145, 720 190, 770 218 C 810 240, 855 252, 885 282 C 902 300, 898 322, 875 332 C 852 342, 825 330, 818 305 C 810 278, 820 255, 790 235 C 740 202, 670 170, 615 110 Z" fill="#7A4A22" stroke="#2B1608" stroke-width="1.8" stroke-opacity="0.4"/>
  <!-- Root 5 - center vertical -->
  <path d="M 485 85 C 475 135, 460 185, 445 235 C 430 285, 425 335, 435 385 C 442 415, 455 435, 485 440 C 515 435, 525 410, 520 380 C 515 335, 505 285, 515 235 C 525 185, 535 135, 515 85 Z" fill="#6D3E1A" stroke="#2B1608" stroke-width="1.9" stroke-opacity="0.45"/>
  <path d="M 485 85 C 475 135, 460 185, 445 235" fill="none" stroke="#FFD9A0" stroke-width="2.5" opacity="0.14"/>
  <!-- Root 6 - far left -->
  <path d="M 345 65 C 300 85, 250 95, 195 105 C 140 115, 85 125, 45 165 C 25 185, 30 210, 55 222 C 80 234, 105 220, 115 195 C 125 170, 118 148, 148 135 C 200 112, 270 98, 360 78 Z" fill="#8B5A2B" opacity="0.95" stroke="#2B1608" stroke-width="1.6" stroke-opacity="0.38"/>
  <!-- Root 7 - far right -->
  <path d="M 655 68 C 700 88, 755 98, 810 108 C 860 118, 915 128, 950 168 C 970 188, 965 212, 940 224 C 915 236, 890 222, 882 197 C 874 172, 882 150, 852 136 C 800 112, 730 98, 640 78 Z" fill="#8B5A2B" opacity="0.95" stroke="#2B1608" stroke-width="1.6" stroke-opacity="0.38"/>
</g>

<!-- Moss patches on roots -->
<g opacity="0.55" filter="url(#softBlur)">
  <ellipse cx="125" cy="275" rx="28" ry="18" fill="url(#mossGrad)"/>
  <ellipse cx="875" cy="298" rx="26" ry="16" fill="url(#mossGrad)"/>
  <ellipse cx="485" cy="395" rx="22" ry="14" fill="url(#mossGrad)"/>
  <ellipse cx="205" cy="132" rx="24" ry="12" fill="#8FAE7A" opacity="0.6"/>
  <ellipse cx="795" cy="145" rx="22" ry="11" fill="#8FAE7A" opacity="0.6"/>
</g>

<!-- Ground texture pebbles and leaf litter -->
<g opacity="0.35" stroke="#5A3A1A" stroke-width="0.8" fill="none" stroke-linecap="round">
  <ellipse cx="280" cy="340" rx="14" ry="9" fill="#D8C4A0" stroke-opacity="0.25"/>
  <ellipse cx="295" cy="355" rx="9" ry="6" fill="#C9B48A" stroke-opacity="0.2"/>
  <ellipse cx="680" cy="520" rx="12" ry="8" fill="#D8C4A0" stroke-opacity="0.25"/>
  <ellipse cx="720" cy="505" rx="8" ry="5" fill="#C9B48A" stroke-opacity="0.2"/>
  <ellipse cx="150" cy="480" rx="10" ry="7" fill="#D8C4A0" stroke-opacity="0.25"/>
  <path d="M 340 480 Q 345 485 350 480 Q 352 475 345 472 Z" fill="#B9976A" opacity="0.5" stroke="none"/>
  <path d="M 760 340 Q 765 345 770 340 Q 772 335 765 332 Z" fill="#B9976A" opacity="0.5" stroke="none"/>
  <path d="M 520 510 Q 525 515 530 510 Q 532 505 525 502 Z" fill="#B9976A" opacity="0.4" stroke="none"/>
  <path d="M 180 350 Q 185 355 190 350 Q 192 345 185 342 Z" fill="#C9A87A" opacity="0.45" stroke="none"/>
  <path d="M 820 460 Q 825 465 830 460 Q 832 455 825 452 Z" fill="#C9A87A" opacity="0.45" stroke="none"/>
</g>

<!-- Grass tufts - hand painted clusters -->
<g stroke="#3D5A2A" stroke-linecap="round" stroke-linejoin="round" opacity="0.85">
  <!-- tuft function repeated -->
  <g transform="translate(180,420)" stroke-width="1.6" fill="none" opacity="0.9">
    <path d="M0 0 Q -8 -18 -12 -32" stroke="#5A7A3A"/>
    <path d="M0 0 Q -3 -22 -4 -38" stroke="#6B8F4A"/>
    <path d="M0 0 Q 4 -20 8 -34" stroke="#5A7A3A"/>
    <path d="M0 0 Q 10 -14 16 -22" stroke="#4A6A2E"/>
    <path d="M0 0 Q -12 -10 -18 -14" stroke="#4A6A2E" stroke-width="1.2"/>
  </g>
  <g transform="translate(260,480)" stroke-width="1.6" fill="none">
    <path d="M0 0 Q -6 -16 -10 -28" stroke="#5A7A3A"/>
    <path d="M0 0 Q -1 -20 0 -36" stroke="#6B8F4A"/>
    <path d="M0 0 Q 6 -18 11 -30" stroke="#5A7A3A"/>
    <path d="M0 0 Q 12 -10 18 -16" stroke="#4A6A2E"/>
  </g>
  <g transform="translate(350,380)" stroke-width="1.6" fill="none">
    <path d="M0 0 Q -9 -15 -14 -26" stroke="#5A7A3A"/>
    <path d="M0 0 Q -4 -19 -5 -33" stroke="#6B8F4A"/>
    <path d="M0 0 Q 5 -17 9 -29" stroke="#5A7A3A"/>
    <path d="M0 0 Q 11 -12 17 -18" stroke="#4A6A2E"/>
  </g>
  <g transform="translate(620,420)" stroke-width="1.6" fill="none">
    <path d="M0 0 Q -7 -17 -11 -30" stroke="#5A7A3A"/>
    <path d="M0 0 Q -2 -21 -2 -37" stroke="#6B8F4A"/>
    <path d="M0 0 Q 6 -19 10 -32" stroke="#5A7A3A"/>
    <path d="M0 0 Q 13 -13 19 -20" stroke="#4A6A2E"/>
  </g>
  <g transform="translate(740,480)" stroke-width="1.6" fill="none">
    <path d="M0 0 Q -8 -16 -13 -28" stroke="#5A7A3A"/>
    <path d="M0 0 Q -3 -20 -4 -35" stroke="#6B8F4A"/>
    <path d="M0 0 Q 5 -18 9 -31" stroke="#5A7A3A"/>
    <path d="M0 0 Q 12 -11 18 -17" stroke="#4A6A2E"/>
  </g>
  <g transform="translate(820,360)" stroke-width="1.5" fill="none">
    <path d="M0 0 Q -6 -14 -9 -24" stroke="#5A7A3A"/>
    <path d="M0 0 Q 0 -18 1 -30" stroke="#6B8F4A"/>
    <path d="M0 0 Q 7 -15 12 -25" stroke="#5A7A3A"/>
  </g>
  <g transform="translate(120,520)" stroke-width="1.5" fill="none">
    <path d="M0 0 Q -7 -15 -11 -26" stroke="#5A7A3A"/>
    <path d="M0 0 Q -2 -18 -2 -31" stroke="#6B8F4A"/>
    <path d="M0 0 Q 6 -16 10 -27" stroke="#5A7A3A"/>
  </g>
  <g transform="translate(560,520)" stroke-width="1.6" fill="none">
    <path d="M0 0 Q -8 -17 -12 -30" stroke="#5A7A3A"/>
    <path d="M0 0 Q -3 -21 -4 -37" stroke="#6B8F4A"/>
    <path d="M0 0 Q 5 -19 9 -33" stroke="#5A7A3A"/>
    <path d="M0 0 Q 11 -13 17 -20" stroke="#4A6A2E"/>
  </g>
  <g transform="translate(400,520)" stroke-width="1.5" fill="none">
    <path d="M0 0 Q -6 -14 -10 -24" stroke="#5A7A3A"/>
    <path d="M0 0 Q 1 -17 2 -29" stroke="#6B8F4A"/>
    <path d="M0 0 Q 8 -13 13 -21" stroke="#5A7A3A"/>
  </g>
  <g transform="translate(680,280)" stroke-width="1.5" fill="none">
    <path d="M0 0 Q -5 -13 -8 -22" stroke="#5A7A3A"/>
    <path d="M0 0 Q 2 -16 3 -27" stroke="#6B8F4A"/>
    <path d="M0 0 Q 9 -12 14 -19" stroke="#5A7A3A"/>
  </g>
  <g transform="translate(320,280)" stroke-width="1.4" fill="none">
    <path d="M0 0 Q -5 -12 -8 -20" stroke="#5A7A3A"/>
    <path d="M0 0 Q 3 -15 5 -25" stroke="#6B8F4A"/>
    <path d="M0 0 Q 9 -10 14 -16" stroke="#5A7A3A"/>
  </g>
</g>

<!-- Wildflowers -->
<g stroke="#2F1E0F" stroke-opacity="0.22" stroke-width="1">
  <!-- white daisy -->
  <g transform="translate(210,380)">
    <circle cx="0" cy="0" r="3.5" fill="#FFFBEB" stroke="none"/>
    <g fill="#FFFEF8" stroke="#3D2B1F" stroke-width="0.7" opacity="0.95">
      <ellipse cx="0" cy="-9" rx="4.5" ry="6" />
      <ellipse cx="7.8" cy="-4.5" rx="4.5" ry="6" transform="rotate(60 7.8 -4.5)"/>
      <ellipse cx="7.8" cy="4.5" rx="4.5" ry="6" transform="rotate(120 7.8 4.5)"/>
      <ellipse cx="0" cy="9" rx="4.5" ry="6" transform="rotate(180 0 9)"/>
      <ellipse cx="-7.8" cy="4.5" rx="4.5" ry="6" transform="rotate(240 -7.8 4.5)"/>
      <ellipse cx="-7.8" cy="-4.5" rx="4.5" ry="6" transform="rotate(300 -7.8 -4.5)"/>
    </g>
    <circle cx="0" cy="0" r="4.2" fill="#FFD84A" stroke="none" opacity="0.95"/>
    <circle cx="-1" cy="-1" r="1.2" fill="#FFF7B0" opacity="0.9"/>
  </g>
  <!-- yellow flower -->
  <g transform="translate(760,420)">
    <g fill="#FFD84A" stroke="#5A3A0A" stroke-width="0.6" opacity="0.95">
      <ellipse cx="0" cy="-8" rx="4" ry="5.5"/>
      <ellipse cx="7" cy="-4" rx="4" ry="5.5" transform="rotate(72 7 -4)"/>
      <ellipse cx="4.3" cy="6.8" rx="4" ry="5.5" transform="rotate(144 4.3 6.8)"/>
      <ellipse cx="-4.3" cy="6.8" rx="4" ry="5.5" transform="rotate(216 -4.3 6.8)"/>
      <ellipse cx="-7" cy="-4" rx="4" ry="5.5" transform="rotate(288 -7 -4)"/>
    </g>
    <circle cx="0" cy="0" r="3.8" fill="#FF8C2A" opacity="0.9"/>
  </g>
  <!-- blue forget-me-not -->
  <g transform="translate(450,460)">
    <g fill="#8AB8E8" stroke="#1E3A5A" stroke-width="0.6" opacity="0.95">
      <circle cx="0" cy="-6" r="4.5"/>
      <circle cx="5.7" cy="-1.8" r="4.5"/>
      <circle cx="3.5" cy="4.8" r="4.5"/>
      <circle cx="-3.5" cy="4.8" r="4.5"/>
      <circle cx="-5.7" cy="-1.8" r="4.5"/>
    </g>
    <circle cx="0" cy="0" r="2.8" fill="#FFE8A0"/>
    <circle cx="0" cy="0" r="1.1" fill="#FF6B6B" opacity="0.7"/>
  </g>
  <g transform="translate(620,500)">
    <g fill="#8AB8E8" stroke="#1E3A5A" stroke-width="0.6" opacity="0.95">
      <circle cx="0" cy="-5" r="3.8"/>
      <circle cx="4.8" cy="-1.5" r="3.8"/>
      <circle cx="3" cy="4" r="3.8"/>
      <circle cx="-3" cy="4" r="3.8"/>
      <circle cx="-4.8" cy="-1.5" r="3.8"/>
    </g>
    <circle cx="0" cy="0" r="2.2" fill="#FFE8A0"/>
  </g>
  <!-- pink flower -->
  <g transform="translate(380,450)">
    <g fill="#F8A8C8" stroke="#6B2A3A" stroke-width="0.6" opacity="0.95">
      <ellipse cx="0" cy="-7" rx="3.8" ry="5.2"/>
      <ellipse cx="6.6" cy="-2.1" rx="3.8" ry="5.2" transform="rotate(72 6.6 -2.1)"/>
      <ellipse cx="4.1" cy="5.6" rx="3.8" ry="5.2" transform="rotate(144 4.1 5.6)"/>
      <ellipse cx="-4.1" cy="5.6" rx="3.8" ry="5.2" transform="rotate(216 -4.1 5.6)"/>
      <ellipse cx="-6.6" cy="-2.1" rx="3.8" ry="5.2" transform="rotate(288 -6.6 -2.1)"/>
    </g>
    <circle cx="0" cy="0" r="2.8" fill="#FFEC8A"/>
  </g>
  <g transform="translate(520,340)">
    <g fill="#F8A8C8" stroke="#6B2A3A" stroke-width="0.6" opacity="0.92">
      <ellipse cx="0" cy="-6" rx="3.2" ry="4.5"/>
      <ellipse cx="5.7" cy="-1.8" rx="3.2" ry="4.5" transform="rotate(72 5.7 -1.8)"/>
      <ellipse cx="3.5" cy="4.8" rx="3.2" ry="4.5" transform="rotate(144 3.5 4.8)"/>
      <ellipse cx="-3.5" cy="4.8" rx="3.2" ry="4.5" transform="rotate(216 -3.5 4.8)"/>
      <ellipse cx="-5.7" cy="-1.8" rx="3.2" ry="4.5" transform="rotate(288 -5.7 -1.8)"/>
    </g>
    <circle cx="0" cy="0" r="2.4" fill="#FFEC8A"/>
  </g>
  <!-- small white cluster -->
  <g transform="translate(680,380)">
    <g fill="#FFFEF8" stroke="#3D2B1F" stroke-width="0.6">
      <ellipse cx="0" cy="-7" rx="3.5" ry="4.8"/>
      <ellipse cx="6" cy="-1.9" rx="3.5" ry="4.8" transform="rotate(72 6 -1.9)"/>
      <ellipse cx="3.7" cy="5" rx="3.5" ry="4.8" transform="rotate(144 3.7 5)"/>
      <ellipse cx="-3.7" cy="5" rx="3.5" ry="4.8" transform="rotate(216 -3.7 5)"/>
      <ellipse cx="-6" cy="-1.9" rx="3.5" ry="4.8" transform="rotate(288 -6 -1.9)"/>
    </g>
    <circle cx="0" cy="0" r="2.6" fill="#FFD84A"/>
  </g>
  <g transform="translate(140,360)">
    <g fill="#FFD84A" stroke="#5A3A0A" stroke-width="0.5">
      <circle cx="0" cy="-5" r="3.2"/>
      <circle cx="4.7" cy="-1.5" r="3.2"/>
      <circle cx="2.9" cy="4" r="3.2"/>
      <circle cx="-2.9" cy="4" r="3.2"/>
      <circle cx="-4.7" cy="-1.5" r="3.2"/>
    </g>
    <circle cx="0" cy="0" r="1.8" fill="#FF6B2A"/>
  </g>
</g>

<!-- Mushrooms -->
<g stroke="#2B1608" stroke-opacity="0.35" stroke-linecap="round" stroke-linejoin="round">
  <!-- red mushroom large -->
  <g transform="translate(300,410)">
    <ellipse cx="0" cy="14" rx="18" ry="6" fill="#000" opacity="0.12"/>
    <path d="M -12 12 Q -8 2 0 -2 Q 8 2 12 12 Q 6 15 0 16 Q -6 15 -12 12 Z" fill="#FFF8E8" stroke-width="1.4"/>
    <path d="M -22 -4 Q -8 -22 0 -23 Q 8 -22 22 -4 Q 14 6 0 10 Q -14 6 -22 -4 Z" fill="url(#capRed)" stroke-width="1.6"/>
    <ellipse cx="-8" cy="-8" rx="4.5" ry="3.8" fill="#FFFEF8" opacity="0.92"/>
    <ellipse cx="6" cy="-12" rx="3.2" ry="2.8" fill="#FFFEF8" opacity="0.92"/>
    <ellipse cx="10" cy="-2" rx="2.2" ry="1.8" fill="#FFFEF8" opacity="0.85"/>
    <ellipse cx="-2" cy="-2" rx="1.8" ry="1.4" fill="#FFFEF8" opacity="0.85"/>
    <path d="M 0 10 Q 1 13 0 16" stroke-width="0.8" opacity="0.25"/>
  </g>
  <!-- brown mushroom -->
  <g transform="translate(580,380)">
    <ellipse cx="0" cy="13" rx="16" ry="5" fill="#000" opacity="0.12"/>
    <path d="M -10 11 Q -7 2 0 -1 Q 7 2 10 11 Q 5 13 0 14 Q -5 13 -10 11 Z" fill="#FFF8E8" stroke-width="1.3"/>
    <path d="M -18 -2 Q -6 -18 0 -19 Q 6 -18 18 -2 Q 10 5 0 8 Q -10 5 -18 -2 Z" fill="url(#capBrown)" stroke-width="1.4"/>
    <ellipse cx="0" cy="-7" rx="2.5" ry="1.8" fill="#FFE8C0" opacity="0.5"/>
  </g>
  <!-- small red -->
  <g transform="translate(720,320)">
    <ellipse cx="0" cy="10" rx="12" ry="4" fill="#000" opacity="0.12"/>
    <path d="M -8 9 Q -6 2 0 0 Q 6 2 8 9 Q 4 11 0 11.5 Q -4 11 -8 9 Z" fill="#FFF8E8" stroke-width="1.2"/>
    <path d="M -15 -2 Q -5 -15 0 -16 Q 5 -15 15 -2 Q 8 4 0 6 Q -8 4 -15 -2 Z" fill="url(#capRed)" stroke-width="1.3"/>
    <circle cx="-5" cy="-6" r="2.8" fill="#FFFEF8" opacity="0.9"/>
    <circle cx="5" cy="-8" r="1.8" fill="#FFFEF8" opacity="0.9"/>
  </g>
  <!-- cluster two -->
  <g transform="translate(150,420)">
    <ellipse cx="0" cy="11" rx="13" ry="4.5" fill="#000" opacity="0.12"/>
    <path d="M -9 10 Q -6 1 0 -1 Q 6 1 9 10 Q 4.5 12 0 12.5 Q -4.5 12 -9 10 Z" fill="#FFF8E8" stroke-width="1.2"/>
    <path d="M -16 -3 Q -5 -16 0 -17 Q 5 -16 16 -3 Q 9 4 0 6 Q -9 4 -16 -3 Z" fill="url(#capBrown)" stroke-width="1.3"/>
  </g>
  <g transform="translate(165,435)">
    <ellipse cx="0" cy="7" rx="8" ry="3" fill="#000" opacity="0.1"/>
    <path d="M -6 7 Q -4 1 0 0 Q 4 1 6 7 Q 3 8 0 8.5 Q -3 8 -6 7 Z" fill="#FFF8E8" stroke-width="1"/>
    <path d="M -10 -1 Q -3 -10 0 -10.5 Q 3 -10 10 -1 Q 5 3 0 4 Q -5 3 -10 -1 Z" fill="url(#capRed)" stroke-width="1"/>
    <circle cx="-3" cy="-4" r="1.6" fill="#FFFEF8" opacity="0.9"/>
  </g>
  <!-- tiny -->
  <g transform="translate(480,500)">
    <ellipse cx="0" cy="8" rx="10" ry="3.5" fill="#000" opacity="0.12"/>
    <path d="M -7 8 Q -5 1 0 -1 Q 5 1 7 8 Q 3.5 9.5 0 10 Q -3.5 9.5 -7 8 Z" fill="#FFF8E8" stroke-width="1"/>
    <path d="M -13 -1 Q -4 -12 0 -13 Q 4 -12 13 -1 Q 7 4 0 5.5 Q -7 4 -13 -1 Z" fill="url(#capRed)" stroke-width="1.1"/>
    <circle cx="-4" cy="-5" r="2.2" fill="#FFFEF8" opacity="0.9"/>
  </g>
  <g transform="translate(850,480)">
    <ellipse cx="0" cy="9" rx="11" ry="3.8" fill="#000" opacity="0.11"/>
    <path d="M -7 9 Q -5 1 0 -0.5 Q 5 1 7 9 Q 3.5 10.5 0 11 Q -3.5 10.5 -7 9 Z" fill="#FFF8E8" stroke-width="1"/>
    <path d="M -14 -1.5 Q -4 -13 0 -14 Q 4 -13 14 -1.5 Q 8 4 0 6 Q -8 4 -14 -1.5 Z" fill="url(#capBrown)" stroke-width="1.1"/>
  </g>
</g>

<!-- Dew sparkles and water droplets -->
<g>
  <g fill="#FFFFFF" stroke="#6B8FAE" stroke-width="0.6" stroke-opacity="0.25">
    <circle cx="340" cy="525" r="4.2" opacity="0.85"/>
    <circle cx="338.5" cy="523.5" r="1.1" fill="#FFFFFF" stroke="none" opacity="0.95"/>
    <circle cx="410" cy="385" r="3.2" opacity="0.8"/>
    <circle cx="409" cy="384" r="0.8" fill="#FFFFFF" stroke="none" opacity="0.95"/>
    <circle cx="660" cy="450" r="3.8" opacity="0.82"/>
    <circle cx="658.8" cy="448.5" r="1" fill="#FFFFFF" stroke="none" opacity="0.95"/>
    <circle cx="520" cy="485" r="2.8" opacity="0.78"/>
    <circle cx="790" cy="400" r="3.5" opacity="0.8"/>
    <circle cx="230" cy="505" r="2.6" opacity="0.75"/>
    <circle cx="180" cy="485" r="2.2" opacity="0.7"/>
    <circle cx="860" cy="360" r="2.4" opacity="0.72"/>
    <circle cx="600" cy="350" r="2" opacity="0.7"/>
  </g>
  <!-- star sparkles -->
  <g fill="#FFFFFF" stroke="none" opacity="0.9" filter="url(#glow)">
    <g transform="translate(365,315)">
      <path d="M 0 -6 L 1.2 -1.2 L 6 0 L 1.2 1.2 L 0 6 L -1.2 1.2 L -6 0 L -1.2 -1.2 Z" opacity="0.95"/>
    </g>
    <g transform="translate(540,285)" opacity="0.85">
      <path d="M 0 -5 L 1 -1 L 5 0 L 1 1 L 0 5 L -1 1 L -5 0 L -1 -1 Z"/>
    </g>
    <g transform="translate(780,285)" opacity="0.8">
      <path d="M 0 -4.5 L 0.9 -0.9 L 4.5 0 L 0.9 0.9 L 0 4.5 L -0.9 0.9 L -4.5 0 L -0.9 -0.9 Z"/>
    </g>
    <g transform="translate(250,335)" opacity="0.75">
      <path d="M 0 -4 L 0.8 -0.8 L 4 0 L 0.8 0.8 L 0 4 L -0.8 0.8 L -4 0 L -0.8 -0.8 Z"/>
    </g>
    <g transform="translate(700,540)" opacity="0.8">
      <path d="M 0 -5 L 1 -1 L 5 0 L 1 1 L 0 5 L -1 1 L -5 0 L -1 -1 Z"/>
    </g>
    <g transform="translate(460,540)" opacity="0.7">
      <path d="M 0 -3.5 L 0.7 -0.7 L 3.5 0 L 0.7 0.7 L 0 3.5 L -0.7 0.7 L -3.5 0 L -0.7 -0.7 Z"/>
    </g>
  </g>
</g>

<!-- Fireflies - warm glowing -->
<g filter="url(#glow)">
  <g transform="translate(280,260)">
    <circle cx="0" cy="0" r="14" fill="url(#fireflyGlow)" opacity="0.55"/>
    <circle cx="0" cy="0" r="4.2" fill="#FFF9B0" opacity="0.95"/>
    <circle cx="0" cy="0" r="2" fill="#FFFFFF" opacity="0.9"/>
    <ellipse cx="1.5" cy="2.5" rx="5" ry="2.5" fill="#FFB84A" opacity="0.35"/>
  </g>
  <g transform="translate(620,260)">
    <circle cx="0" cy="0" r="12" fill="url(#fireflyGlow)" opacity="0.5"/>
    <circle cx="0" cy="0" r="3.8" fill="#FFF9B0" opacity="0.95"/>
    <circle cx="0" cy="0" r="1.6" fill="#FFFFFF" opacity="0.9"/>
  </g>
  <g transform="translate(480,210)">
    <circle cx="0" cy="0" r="10" fill="url(#fireflyGlow)" opacity="0.45"/>
    <circle cx="0" cy="0" r="3.2" fill="#FFF9B0" opacity="0.9"/>
  </g>
  <g transform="translate(820,260)">
    <circle cx="0" cy="0" r="11" fill="url(#fireflyGlow)" opacity="0.48"/>
    <circle cx="0" cy="0" r="3.4" fill="#FFF9B0" opacity="0.92"/>
  </g>
  <g transform="translate(180,280)">
    <circle cx="0" cy="0" r="9" fill="url(#fireflyGlow)" opacity="0.4"/>
    <circle cx="0" cy="0" r="2.8" fill="#FFF9B0" opacity="0.88"/>
  </g>
  <g transform="translate(750,200)">
    <circle cx="0" cy="0" r="8" fill="url(#fireflyGlow)" opacity="0.38"/>
    <circle cx="0" cy="0" r="2.6" fill="#FFF9B0" opacity="0.88"/>
  </g>
  <g transform="translate(380,200)">
    <circle cx="0" cy="0" r="7" fill="url(#fireflyGlow)" opacity="0.35"/>
    <circle cx="0" cy="0" r="2.2" fill="#FFF9B0" opacity="0.85"/>
  </g>
  <g transform="translate(560,320)">
    <circle cx="0" cy="0" r="9" fill="url(#fireflyGlow)" opacity="0.42"/>
    <circle cx="0" cy="0" r="2.9" fill="#FFF9B0" opacity="0.9"/>
  </g>
</g>

<!-- Candlelit warm overlay -->
<rect x="0" y="0" width="1000" height="650" rx="18" fill="url(#candleGlow)" opacity="0.95"/>

<!-- Vignette soft ink border -->
<rect x="0" y="0" width="1000" height="650" rx="18" fill="none" stroke="#2B1E12" stroke-width="14" opacity="0.18"/>
<rect x="0" y="0" width="1000" height="650" rx="18" fill="none" stroke="#5A3A1A" stroke-width="2" opacity="0.22"/>
<!-- inner paper edge -->
<rect x="12" y="12" width="976" height="626" rx="14" fill="none" stroke="#FFF8E0" stroke-width="1.5" opacity="0.35"/>

<!-- subtle texture grain overlay -->
<g opacity="0.07">
  <circle cx="150" cy="150" r="1.2" fill="#2B1E12"/>
  <circle cx="300" cy="180" r="1" fill="#2B1E12"/>
  <circle cx="650" cy="120" r="1.1" fill="#2B1E12"/>
  <circle cx="800" cy="160" r="0.9" fill="#2B1E12"/>
  <circle cx="400" cy="600" r="1" fill="#2B1E12"/>
  <circle cx="700" cy="600" r="1" fill="#2B1E12"/>
</g>
</svg>